<?xml version="1.0" encoding="utf-8"?>
<!-- Generator: Adobe Illustrator 19.2.0, SVG Export Plug-In . SVG Version: 6.00 Build 0)  -->
<svg version="1.1"
	 id="Слой_1" image-rendering="optimizeQuality" shape-rendering="geometricPrecision" text-rendering="geometricPrecision"
	 xmlns="http://www.w3.org/2000/svg" xmlns:xlink="http://www.w3.org/1999/xlink" x="0px" y="0px" viewBox="0 0 378 263"
	 style="enable-background:new 0 0 378 263;" xml:space="preserve">
<style type="text/css">
	.st0{fill:#AD7A32;}
</style>
<path class="st0" d="M356,117.2c-0.5-2.4-1-4.7-1.7-7c-0.7-2.3-1.4-4.6-2.4-6.8c-0.9-2.3-1.9-4.5-2.9-6.7c-1.1-2.2-2.2-4.3-3.5-6.4
	c-1.3-2.1-2.6-4.2-4-6.2c-1.4-2-2.9-4-4.5-5.9c-1.6-1.9-3.2-3.8-4.9-5.6c-1.7-1.8-3.4-3.6-5.2-5.3s-3.7-3.4-5.6-5
	c-1.9-1.6-3.9-3.2-5.9-4.7c-2-1.5-4.1-3-6.2-4.4s-4.2-2.8-6.4-4.1c-2.2-1.3-4.3-2.6-6.6-3.8c-2.2-1.2-4.5-2.4-6.8-3.5
	c-2.3-1.1-4.6-2.2-6.9-3.2c-2.4-1-4.7-2-7.1-2.9c-2.4-1-4.8-1.9-7.2-2.7c-2.4-0.8-4.8-1.7-7.3-2.4c-2.4-0.8-4.9-1.5-7.4-2.2
	c-2.5-0.6-4.9-1.3-7.5-1.9c-2.5-0.6-5-1.1-7.5-1.6c-2.5-0.5-5-1-7.6-1.4c-2.5-0.5-5.1-0.8-7.6-1.2s-5.1-0.6-7.6-0.9
	c-2.6-0.3-5.1-0.5-7.7-0.7c-2.6-0.2-5.2-0.3-7.7-0.5c-2.6-0.1-5.2-0.2-7.8-0.2c-2.5,0-5.1,0-7.7,0c-2.6,0-5.1,0.1-7.7,0.2
	c-2.6,0.1-5.2,0.3-7.7,0.5c-2.6,0.2-5.1,0.4-7.7,0.7c-2.6,0.3-5.1,0.6-7.7,0.9s-5.1,0.7-7.6,1.2c-2.5,0.4-5.1,0.9-7.6,1.4
	c-2.5,0.5-5,1.1-7.5,1.6c-2.5,0.6-5,1.3-7.5,1.9c-2.5,0.7-4.9,1.4-7.4,2.2c-2.4,0.8-4.9,1.6-7.3,2.4c-2.4,0.8-4.8,1.7-7.1,2.7
	c-2.4,0.9-4.8,1.9-7.1,2.9c-2.3,1.1-4.6,2.1-6.9,3.2c-2.3,1.1-4.5,2.3-6.8,3.5c-2.2,1.2-4.4,2.5-6.6,3.8c-2.1,1.3-4.3,2.7-6.3,4.1
	s-4.1,2.9-6.2,4.4c-2,1.5-4,3.1-5.9,4.7c-1.9,1.6-3.8,3.3-5.6,5c-1.8,1.7-3.6,3.5-5.3,5.3c-1.7,1.8-3.3,3.7-4.9,5.6
	c-1.6,1.9-3.1,3.9-4.5,5.9c-1.4,2-2.8,4-4,6.2c-1.3,2.1-2.4,4.2-3.5,6.4c-1.1,2.2-2.1,4.4-2.9,6.7c-0.9,2.2-1.7,4.5-2.3,6.8
	c-0.7,2.3-1.3,4.6-1.7,7c-0.5,2.4-0.8,4.8-1,7.1c-0.2,2.4-0.3,4.8-0.3,7.2s0.1,4.8,0.3,7.1c0.2,2.4,0.5,4.8,1,7.1
	c0.4,2.4,1,4.7,1.7,7c0.6,2.3,1.4,4.6,2.3,6.8c0.9,2.2,1.9,4.4,2.9,6.7c1.1,2.2,2.2,4.3,3.5,6.4c1.3,2.1,2.6,4.1,4,6.2
	c1.4,2,2.9,4,4.5,5.9c1.6,1.9,3.2,3.8,4.9,5.6c1.7,1.8,3.5,3.6,5.3,5.3c1.8,1.7,3.7,3.4,5.6,5c1.9,1.6,3.9,3.2,5.9,4.7
	c2,1.5,4.1,3,6.2,4.4c2.1,1.4,4.2,2.8,6.3,4.1c2.2,1.3,4.4,2.6,6.6,3.8c2.2,1.2,4.5,2.4,6.8,3.5c2.3,1.1,4.6,2.2,6.9,3.2
	c2.3,1,4.7,2,7.1,3c2.4,1,4.8,1.8,7.1,2.7c2.4,0.8,4.9,1.6,7.3,2.4s4.9,1.5,7.4,2.2s4.9,1.3,7.5,1.9c2.5,0.6,5,1.1,7.5,1.7
	c2.5,0.5,5.1,1,7.6,1.4c2.5,0.4,5.1,0.8,7.6,1.2c2.5,0.3,5.1,0.6,7.7,0.9c2.5,0.3,5.1,0.5,7.7,0.7c2.5,0.2,5.1,0.3,7.7,0.5
	c2.6,0.1,5.1,0.2,7.7,0.2c2.6,0,5.2,0,7.7,0c2.6,0,5.2-0.1,7.8-0.2c2.5-0.1,5.1-0.3,7.7-0.5c2.5-0.2,5.1-0.4,7.7-0.7
	c2.5-0.3,5.1-0.6,7.6-0.9c2.5-0.4,5.1-0.8,7.6-1.2s5.1-0.9,7.6-1.4c2.5-0.5,5-1.1,7.5-1.7c2.5-0.6,5-1.2,7.5-1.9
	c2.5-0.7,4.9-1.4,7.4-2.2s4.9-1.6,7.3-2.4c2.4-0.9,4.8-1.7,7.2-2.7c2.4-1,4.7-1.9,7.1-3c2.3-1,4.6-2.1,6.9-3.2
	c2.3-1.1,4.6-2.3,6.8-3.5c2.2-1.2,4.4-2.5,6.6-3.8c2.2-1.3,4.3-2.7,6.4-4.1c2.1-1.4,4.1-2.9,6.2-4.4c2-1.5,4-3.1,5.9-4.7
	c1.9-1.6,3.8-3.3,5.6-5s3.6-3.5,5.2-5.3c1.7-1.8,3.3-3.7,4.9-5.6c1.6-1.9,3-3.9,4.5-5.9c1.4-2,2.7-4.1,4-6.2
	c1.3-2.1,2.4-4.2,3.5-6.4c1.1-2.2,2.1-4.4,2.9-6.7c0.9-2.2,1.7-4.5,2.4-6.8c0.6-2.3,1.2-4.6,1.7-7c0.5-2.4,0.8-4.7,1-7.1
	c0.2-2.4,0.3-4.8,0.3-7.1s-0.1-4.8-0.3-7.2C356.8,122,356.5,119.6,356,117.2z M354.6,138.6c-0.2,2.3-0.6,4.6-1,6.9
	c-0.4,2.3-1,4.6-1.6,6.9c-0.6,2.2-1.4,4.5-2.3,6.7s-1.8,4.4-2.9,6.5c-1,2.1-2.2,4.2-3.4,6.3c-1.2,2.1-2.5,4.1-3.9,6
	c-1.4,2-2.9,3.9-4.4,5.8c-1.5,1.9-3.2,3.7-4.8,5.5c-1.6,1.8-3.4,3.5-5.2,5.2c-1.8,1.7-3.6,3.3-5.5,4.9c-1.9,1.6-3.8,3.1-5.8,4.6
	c-2,1.5-4,2.9-6,4.3c-2.1,1.4-4.1,2.7-6.3,4c-2.1,1.3-4.3,2.5-6.5,3.7c-2.2,1.2-4.4,2.4-6.7,3.5c-2.2,1.1-4.5,2.2-6.8,3.2
	c-2.3,1-4.6,2-7,2.9c-2.4,0.9-4.7,1.8-7.1,2.6c-2.4,0.8-4.8,1.6-7.2,2.4c-2.4,0.8-4.8,1.5-7.3,2.1c-2.4,0.7-4.9,1.3-7.3,1.9
	c-2.5,0.6-4.9,1.1-7.4,1.6c-2.5,0.5-5,1-7.5,1.4c-2.5,0.4-5,0.8-7.5,1.1c-2.5,0.4-5,0.6-7.6,0.9c-2.5,0.3-5.1,0.5-7.6,0.7
	c-2.5,0.2-5.1,0.3-7.6,0.5c-2.5,0.1-5.1,0.2-7.6,0.2s-5.1,0-7.6,0s-5.1-0.1-7.6-0.2c-2.5-0.1-5.1-0.3-7.6-0.5
	c-2.5-0.2-5.1-0.4-7.6-0.7c-2.5-0.3-5.1-0.5-7.6-0.9c-2.5-0.3-5-0.7-7.5-1.1c-2.5-0.4-5-0.9-7.5-1.4c-2.5-0.5-4.9-1.1-7.4-1.6
	c-2.5-0.6-4.9-1.2-7.3-1.9c-2.4-0.6-4.9-1.4-7.3-2.1c-2.4-0.8-4.8-1.6-7.2-2.4c-2.4-0.8-4.8-1.7-7.1-2.6c-2.4-1-4.7-1.9-7-2.9
	c-2.3-1-4.6-2.1-6.8-3.2c-2.2-1.1-4.5-2.2-6.7-3.5c-2.2-1.2-4.3-2.4-6.5-3.7c-2.1-1.3-4.2-2.6-6.3-4c-2.1-1.4-4.1-2.8-6-4.3
	c-2-1.5-3.9-3-5.8-4.6c-1.9-1.6-3.7-3.2-5.5-4.9c-1.8-1.7-3.5-3.4-5.2-5.2s-3.3-3.6-4.8-5.5c-1.6-1.9-3-3.8-4.4-5.8s-2.7-4-4-6
	c-1.2-2.1-2.4-4.1-3.4-6.3c-1-2.1-2-4.3-2.9-6.5c-0.9-2.2-1.6-4.4-2.3-6.7c-0.7-2.3-1.2-4.6-1.7-6.9c-0.5-2.3-0.8-4.6-1-6.9
	c-0.2-2.4-0.3-4.7-0.3-7c0-2.4,0.1-4.7,0.3-7s0.5-4.6,1-7c0.5-2.3,1-4.6,1.7-6.8c0.6-2.3,1.4-4.5,2.3-6.7c0.8-2.2,1.8-4.4,2.9-6.5
	c1.1-2.1,2.2-4.3,3.4-6.3c1.3-2.1,2.5-4.1,4-6c1.4-2,2.9-3.9,4.4-5.8c1.5-1.9,3.1-3.7,4.8-5.5c1.7-1.8,3.4-3.5,5.2-5.2
	c1.8-1.7,3.6-3.3,5.5-4.9c1.9-1.6,3.8-3.1,5.8-4.6c2-1.5,4-2.9,6-4.3c2.1-1.4,4.1-2.7,6.3-4c2.1-1.3,4.3-2.5,6.5-3.8
	c2.2-1.2,4.4-2.4,6.7-3.5c2.2-1.1,4.5-2.2,6.8-3.2c2.3-1,4.6-2,7-2.9c2.3-0.9,4.7-1.8,7.1-2.7c2.4-0.8,4.8-1.6,7.2-2.4
	c2.4-0.7,4.8-1.4,7.3-2.1c2.4-0.6,4.9-1.3,7.3-1.9c2.5-0.6,4.9-1.1,7.4-1.6s5-1,7.5-1.4c2.5-0.5,5-0.8,7.5-1.2s5.1-0.6,7.6-0.9
	c2.5-0.3,5.1-0.5,7.6-0.7c2.5-0.2,5.1-0.3,7.6-0.5c2.5-0.1,5.1-0.2,7.6-0.2c2.5-0.1,5.1-0.1,7.6,0c2.5,0,5.1,0.1,7.6,0.2
	c2.5,0.1,5.1,0.3,7.6,0.5c2.5,0.2,5.1,0.4,7.6,0.7c2.5,0.3,5.1,0.6,7.6,0.9s5,0.7,7.5,1.1c2.5,0.5,5,0.9,7.5,1.4
	c2.5,0.5,4.9,1.1,7.4,1.6c2.4,0.6,4.9,1.2,7.3,1.9c2.4,0.7,4.9,1.4,7.3,2.1c2.4,0.8,4.8,1.6,7.2,2.4c2.4,0.8,4.7,1.7,7.1,2.7
	c2.3,0.9,4.6,1.9,7,2.9c2.3,1,4.6,2.1,6.8,3.2c2.2,1.1,4.5,2.3,6.7,3.5c2.2,1.2,4.4,2.5,6.5,3.8c2.1,1.3,4.2,2.6,6.3,4
	c2.1,1.4,4.1,2.8,6,4.3s3.9,3,5.8,4.6c1.9,1.6,3.7,3.2,5.5,4.9c1.8,1.7,3.5,3.4,5.2,5.2c1.7,1.8,3.3,3.6,4.8,5.5s3,3.8,4.4,5.8
	c1.4,1.9,2.7,4,3.9,6c1.3,2.1,2.4,4.2,3.4,6.3c1.1,2.1,2,4.3,2.9,6.5s1.6,4.4,2.3,6.7c0.6,2.2,1.2,4.5,1.6,6.8c0.5,2.3,0.8,4.6,1,7
	c0.2,2.3,0.3,4.7,0.3,7C354.9,133.8,354.8,136.2,354.6,138.6z"/>
<path class="st0" d="M368.6,114.8c-0.5-2.8-1.2-5.5-2-8.2c-0.8-2.7-1.7-5.3-2.7-7.9c-1-2.6-2.1-5.2-3.4-7.7c-1.2-2.5-2.5-4.9-4-7.3
	c-1.4-2.4-3-4.7-4.6-7c-1.6-2.3-3.3-4.5-5-6.6c-1.8-2.1-3.6-4.2-5.5-6.2c-1.9-2-3.8-4-5.9-5.9c-2-1.9-4-3.7-6.1-5.5
	c-2.1-1.7-4.3-3.5-6.5-5.1c-2.2-1.7-4.4-3.2-6.7-4.8c-2.3-1.5-4.6-3-6.9-4.4c-2.3-1.4-4.7-2.8-7.1-4.1c-2.4-1.3-4.8-2.5-7.3-3.8
	c-2.4-1.2-4.9-2.3-7.4-3.4s-5-2.2-7.5-3.2c-2.5-1-5.1-2-7.6-2.9c-2.6-0.9-5.1-1.8-7.7-2.6c-2.6-0.8-5.2-1.6-7.8-2.3
	c-2.6-0.7-5.2-1.4-7.9-2c-2.6-0.6-5.3-1.2-7.9-1.7c-2.6-0.5-5.3-1-7.9-1.5c-2.7-0.5-5.4-0.8-8-1.2c-2.7-0.4-5.4-0.7-8.1-1
	c-2.7-0.3-5.4-0.5-8.1-0.7c-2.7-0.2-5.4-0.3-8.1-0.5c-2.7-0.1-5.4-0.2-8.1-0.2c-2.7-0.1-5.4-0.1-8.1,0c-2.7,0-5.4,0.1-8.1,0.2
	c-2.7,0.1-5.4,0.3-8.1,0.5c-2.7,0.2-5.4,0.5-8.1,0.7c-2.7,0.3-5.4,0.6-8,1c-2.7,0.4-5.4,0.8-8,1.2c-2.7,0.5-5.3,1-8,1.5
	c-2.6,0.5-5.3,1.1-7.9,1.7c-2.7,0.6-5.2,1.3-7.9,2s-5.2,1.5-7.8,2.3c-2.6,0.8-5.2,1.7-7.7,2.6c-2.5,0.9-5.1,1.9-7.6,2.9
	c-2.5,1-5,2.1-7.5,3.2c-2.5,1.1-4.9,2.2-7.4,3.4c-2.4,1.2-4.8,2.5-7.2,3.8c-2.4,1.3-4.8,2.7-7.1,4.1c-2.3,1.4-4.6,2.9-6.9,4.4
	c-2.2,1.6-4.5,3.1-6.7,4.8c-2.2,1.6-4.3,3.3-6.4,5.1c-2.1,1.8-4.1,3.6-6.2,5.5c-2,1.9-4,3.8-5.8,5.9c-1.9,2-3.7,4.1-5.5,6.2
	c-1.7,2.1-3.4,4.3-5,6.6c-1.6,2.2-3.1,4.6-4.6,7c-1.4,2.4-2.8,4.9-4,7.3C16.2,93.4,15,96,14,98.6c-1,2.6-1.9,5.3-2.7,7.9
	c-0.8,2.7-1.4,5.4-2,8.2c-0.5,2.7-0.9,5.6-1.2,8.3c-0.3,2.8-0.4,5.6-0.4,8.4c0,2.8,0.1,5.6,0.4,8.4c0.3,2.8,0.7,5.6,1.2,8.4
	c0.5,2.8,1.2,5.5,2,8.2s1.7,5.4,2.7,8c1,2.6,2.2,5.1,3.4,7.6c1.3,2.5,2.6,4.9,4,7.3s2.9,4.7,4.6,7c1.6,2.2,3.3,4.4,5,6.6
	c1.7,2.1,3.6,4.2,5.5,6.2c1.9,2,3.8,4,5.8,5.9c2,1.9,4.1,3.7,6.2,5.5c2.1,1.7,4.3,3.5,6.4,5.1c2.2,1.7,4.4,3.2,6.7,4.8
	c2.3,1.6,4.6,3,6.9,4.4c2.4,1.4,4.7,2.8,7.1,4.1c2.4,1.3,4.8,2.6,7.2,3.8c2.5,1.2,4.9,2.4,7.4,3.5c2.5,1.1,5,2.1,7.5,3.2
	c2.5,1,5.1,1.9,7.6,2.9c2.5,0.9,5.1,1.7,7.7,2.5c2.6,0.8,5.2,1.6,7.8,2.3c2.6,0.7,5.2,1.4,7.9,2c2.6,0.6,5.3,1.2,7.9,1.7
	c2.7,0.6,5.3,1,8,1.5s5.3,0.9,8,1.3c2.7,0.3,5.4,0.7,8,1c2.7,0.3,5.4,0.5,8.1,0.7s5.4,0.4,8.1,0.5s5.4,0.2,8.1,0.2s5.4,0,8.1,0
	s5.4-0.1,8.1-0.2s5.4-0.3,8.1-0.5c2.7-0.2,5.4-0.4,8.1-0.7c2.7-0.3,5.4-0.6,8.1-1c2.7-0.4,5.3-0.8,8-1.3c2.7-0.5,5.3-0.9,7.9-1.5
	c2.7-0.5,5.3-1.1,7.9-1.7c2.6-0.6,5.2-1.3,7.9-2c2.6-0.7,5.2-1.5,7.8-2.3c2.6-0.8,5.1-1.6,7.7-2.5c2.5-0.9,5.1-1.9,7.6-2.9
	c2.5-1,5.1-2.1,7.5-3.2s4.9-2.2,7.4-3.5c2.4-1.2,4.9-2.4,7.3-3.8c2.4-1.3,4.8-2.7,7.1-4.1c2.3-1.4,4.6-2.9,6.9-4.4
	c2.2-1.5,4.5-3.1,6.7-4.8c2.2-1.6,4.3-3.3,6.5-5.1c2.1-1.7,4.1-3.6,6.2-5.5c2-1.9,3.9-3.8,5.8-5.9c1.9-2,3.7-4.1,5.5-6.2
	c1.7-2.2,3.4-4.4,5-6.6c1.6-2.3,3.1-4.6,4.6-7s2.8-4.8,4-7.3c1.3-2.5,2.4-5.1,3.4-7.6c1-2.6,1.9-5.3,2.7-8c0.8-2.7,1.4-5.4,2-8.2
	c0.5-2.8,0.9-5.6,1.2-8.4c0.3-2.8,0.4-5.6,0.4-8.4c0-2.8-0.2-5.6-0.4-8.4C369.5,120.3,369.2,117.5,368.6,114.8z M368.4,127.4
	c0.1,1.8-1.3,3.3-3,3.3c-1.8,0-3.2-1.4-3.3-3.1c-0.1-1.7,1.2-3.2,3-3.3C366.7,124.1,368.3,125.5,368.4,127.4z M361.3,120
	c-0.3-1.7,0.9-3.3,2.6-3.7c1.7-0.3,3.4,0.9,3.6,2.7c0.3,1.8-1,3.5-2.7,3.6C363.1,122.9,361.6,121.6,361.3,120z M366,110.9
	c0.5,1.8-0.6,3.5-2.4,3.9c-1.7,0.3-3.4-0.7-3.8-2.4c-0.4-1.6,0.6-3.3,2.3-3.8S365.6,109.1,366,110.9z M363.7,103
	c0.6,1.7-0.3,3.6-2,4.1c-1.7,0.5-3.4-0.4-4-2.1c-0.6-1.6,0.3-3.4,1.9-4C361.3,100.3,363.1,101.2,363.7,103z M360.7,95.2
	c0.8,1.7,0,3.6-1.6,4.2c-1.6,0.6-3.5-0.1-4.1-1.7c-0.7-1.6,0-3.4,1.5-4.2C358,92.9,359.9,93.5,360.7,95.2z M357,87.8
	c0.9,1.6,0.3,3.6-1.3,4.3c-1.6,0.8-3.5,0.2-4.3-1.3c-0.8-1.5-0.3-3.4,1.2-4.3C354.2,85.7,356.2,86.2,357,87.8z M352.8,80.8
	c1,1.5,0.6,3.5-1,4.4c-1.5,0.9-3.4,0.4-4.3-1c-1-1.4-0.6-3.4,0.9-4.4C349.8,78.8,351.8,79.2,352.8,80.8z M348.1,74
	c1.1,1.4,0.8,3.5-0.6,4.5c-1.4,1-3.4,0.7-4.4-0.6c-1-1.3-0.8-3.3,0.5-4.4C344.9,72.4,346.9,72.6,348.1,74z M342.9,67.7
	c1.2,1.4,1,3.4-0.3,4.5c-1.4,1.1-3.3,1-4.4-0.3c-1.1-1.3-1-3.3,0.2-4.4C339.6,66.2,341.6,66.3,342.9,67.7z M337.3,61.7
	c1.3,1.3,1.3,3.3,0,4.5c-1.3,1.2-3.2,1.2-4.4,0c-1.2-1.2-1.3-3.2,0-4.5C334,60.5,336,60.5,337.3,61.7z M331.3,56.1
	c1.3,1.2,1.4,3.2,0.2,4.5c-1.2,1.3-3.2,1.3-4.4,0.2c-1.3-1.1-1.4-3.1-0.3-4.4C327.9,55.1,330,54.9,331.3,56.1z M325.1,50.9
	c1.4,1.1,1.6,3.2,0.5,4.5c-1.1,1.4-3.1,1.6-4.4,0.5c-1.3-1.1-1.6-3-0.5-4.4S323.7,49.8,325.1,50.9z M318.6,46c1.5,1,1.8,3,0.7,4.4
	c-1,1.4-3,1.7-4.4,0.7c-1.4-1-1.7-2.9-0.8-4.4S317.1,44.9,318.6,46z M311.9,41.4c1.5,1,1.9,3,1,4.4c-1,1.4-2.9,1.9-4.4,0.9
	c-1.4-0.9-1.9-2.9-1-4.3S310.3,40.5,311.9,41.4z M304.9,37.2c1.6,0.9,2.1,2.9,1.2,4.4c-0.9,1.5-2.9,2-4.3,1.1
	c-1.5-0.9-2.1-2.8-1.2-4.3C301.4,36.9,303.4,36.3,304.9,37.2z M297.8,33.3c1.6,0.8,2.2,2.8,1.4,4.3c-0.8,1.6-2.7,2.1-4.3,1.3
	c-1.6-0.8-2.2-2.7-1.4-4.3C294.3,33.2,296.2,32.5,297.8,33.3z M290.6,29.8c1.6,0.8,2.3,2.7,1.6,4.3c-0.8,1.6-2.7,2.2-4.2,1.5
	c-1.6-0.7-2.2-2.6-1.6-4.2C287.1,29.7,289,29,290.6,29.8z M283.2,26.5c1.7,0.7,2.4,2.6,1.7,4.2c-0.7,1.6-2.5,2.3-4.1,1.7
	c-1.6-0.7-2.4-2.5-1.7-4.1C279.7,26.6,281.6,25.8,283.2,26.5z M275.7,23.5c1.7,0.6,2.5,2.5,1.9,4.1c-0.6,1.6-2.5,2.4-4.1,1.8
	c-1.6-0.6-2.5-2.4-1.9-4.1C272.2,23.8,274,22.9,275.7,23.5z M268.1,20.8c1.7,0.6,2.6,2.4,2,4c-0.6,1.7-2.4,2.5-4,2
	c-1.6-0.5-2.5-2.3-2-4C264.6,21.2,266.4,20.3,268.1,20.8z M260.4,18.4c1.7,0.5,2.7,2.3,2.1,4c-0.5,1.7-2.3,2.6-3.9,2.1
	c-1.7-0.5-2.6-2.2-2.2-3.9S258.7,17.9,260.4,18.4z M252.6,16.3c1.7,0.5,2.8,2.2,2.3,3.9c-0.5,1.7-2.2,2.7-3.9,2.2
	c-1.7-0.4-2.7-2.1-2.3-3.8C249.2,16.9,250.9,15.9,252.6,16.3z M244.8,14.4c1.7,0.4,2.9,2.1,2.4,3.8c-0.4,1.7-2.1,2.7-3.8,2.4
	c-1.7-0.4-2.8-2.1-2.4-3.8C241.4,15.2,243.1,14.1,244.8,14.4z M233.2,15.4c0.3-1.7,1.9-2.9,3.7-2.5c1.7,0.3,2.9,2,2.5,3.7
	c-0.3,1.7-2,2.8-3.7,2.5C234.1,18.7,232.9,17.1,233.2,15.4z M225.4,14.2c0.3-1.7,1.9-3,3.7-2.7c1.7,0.3,2.9,1.9,2.6,3.6
	c-0.3,1.7-1.9,2.9-3.6,2.6C226.3,17.5,225.1,15.9,225.4,14.2z M217.5,13.2c0.2-1.7,1.8-3,3.5-2.8c1.7,0.2,3,1.8,2.8,3.5
	c-0.2,1.7-1.8,3-3.5,2.7C218.6,16.5,217.3,14.9,217.5,13.2z M213,9.6c1.7,0.2,3,1.7,2.9,3.5c-0.2,1.7-1.7,3-3.4,2.9
	c-1.7-0.2-3-1.7-2.9-3.4C209.7,10.7,211.3,9.4,213,9.6z M205,9c1.8,0.1,3.1,1.6,3,3.4c-0.1,1.7-1.6,3-3.3,2.9c-1.7-0.1-3-1.6-3-3.3
	S203.2,8.9,205,9z M197,8.6c1.8,0,3.2,1.5,3.1,3.3c-0.1,1.7-1.5,3.1-3.3,3c-1.7,0-3.1-1.5-3.1-3.2S195.2,8.6,197,8.6z M189,8.5
	c1.7,0,3.2,1.4,3.2,3.2c0,1.7-1.4,3.1-3.2,3.1c-1.7,0-3.2-1.4-3.2-3.1C185.8,10,187.2,8.5,189,8.5z M181,8.6
	c1.7-0.1,3.2,1.3,3.2,3.1c0,1.7-1.3,3.2-3.1,3.2c-1.7,0.1-3.2-1.3-3.3-3C177.8,10.2,179.2,8.7,181,8.6z M172.9,9
	c1.7-0.1,3.3,1.3,3.3,3s-1.3,3.2-3,3.3c-1.7,0.1-3.2-1.2-3.3-2.9C169.8,10.6,171.1,9.1,172.9,9z M164.9,9.6c1.7-0.2,3.3,1.1,3.4,2.9
	c0.2,1.7-1.1,3.3-2.9,3.4c-1.7,0.2-3.3-1.1-3.5-2.9C161.8,11.3,163.1,9.7,164.9,9.6z M156.9,10.4c1.7-0.2,3.3,1,3.5,2.8
	c0.2,1.7-1.1,3.3-2.8,3.5c-1.7,0.2-3.3-1-3.5-2.7C153.9,12.2,155.1,10.6,156.9,10.4z M148.9,11.5c1.7-0.3,3.4,0.9,3.6,2.7
	c0.3,1.7-1,3.3-2.7,3.6c-1.7,0.3-3.3-0.9-3.6-2.6C146,13.4,147.2,11.8,148.9,11.5z M141,12.9c1.7-0.3,3.4,0.8,3.7,2.5
	c0.3,1.7-0.8,3.3-2.5,3.7c-1.7,0.3-3.3-0.8-3.7-2.5C138.1,14.9,139.2,13.2,141,12.9z M133.1,14.4c1.7-0.4,3.5,0.7,3.8,2.4
	c0.3,1.7-0.8,3.4-2.4,3.8c-1.7,0.3-3.4-0.7-3.8-2.4C130.3,16.5,131.4,14.8,133.1,14.4z M125.3,16.3c1.7-0.5,3.5,0.6,3.9,2.3
	c0.4,1.7-0.6,3.4-2.3,3.8c-1.7,0.5-3.4-0.6-3.8-2.2C122.6,18.5,123.6,16.8,125.3,16.3z M117.5,18.4c1.7-0.5,3.5,0.5,4,2.2
	c0.5,1.7-0.5,3.4-2.2,3.9c-1.7,0.5-3.4-0.5-4-2.1C114.9,20.7,115.8,18.9,117.5,18.4z M109.9,20.8c1.7-0.6,3.5,0.4,4,2
	c0.5,1.7-0.4,3.5-2,4c-1.6,0.6-3.4-0.3-4-2C107.2,23.2,108.1,21.4,109.9,20.8z M102.2,23.5c1.7-0.6,3.5,0.2,4.1,1.9
	c0.6,1.7-0.3,3.5-1.9,4.1s-3.4-0.2-4.1-1.8C99.7,26,100.6,24.1,102.2,23.5z M94.7,26.5c1.7-0.7,3.5,0.1,4.2,1.7
	c0.6,1.6-0.2,3.5-1.7,4.1c-1.6,0.6-3.5-0.1-4.1-1.7C92.3,29.1,93.1,27.2,94.7,26.5z M87.3,29.8c1.6-0.8,3.5,0,4.2,1.6
	c0.7,1.6,0,3.5-1.5,4.2c-1.6,0.7-3.5,0.1-4.2-1.5C85,32.4,85.7,30.5,87.3,29.8z M80.1,33.3c1.6-0.8,3.5-0.2,4.3,1.4
	c0.8,1.6,0.2,3.5-1.4,4.3c-1.5,0.8-3.4,0.2-4.3-1.3C77.9,36.1,78.5,34.2,80.1,33.3z M73,37.2c1.5-0.9,3.5-0.3,4.3,1.2
	c0.8,1.6,0.3,3.5-1.2,4.3c-1.5,0.8-3.4,0.3-4.3-1.1S71.4,38.1,73,37.2z M66,41.4c1.5-1,3.5-0.5,4.4,1s0.5,3.4-1,4.3
	c-1.4,1-3.4,0.5-4.4-0.9C64.1,44.4,64.6,42.4,66,41.4z M59.4,46c1.4-1.1,3.5-0.7,4.4,0.8c1,1.4,0.6,3.4-0.8,4.4s-3.3,0.7-4.4-0.7
	C57.6,49,57.9,47,59.4,46z M52.9,50.9c1.4-1.1,3.4-0.9,4.5,0.5c1,1.4,0.8,3.4-0.6,4.4c-1.3,1.1-3.3,0.9-4.4-0.5
	C51.2,54,51.4,52,52.9,50.9z M46.6,56.1c1.3-1.2,3.4-1.1,4.5,0.3c1.1,1.3,1,3.3-0.3,4.4c-1.3,1.1-3.2,1.1-4.4-0.2
	C45.2,59.4,45.3,57.3,46.6,56.1z M40.7,61.7c1.3-1.3,3.3-1.3,4.5,0c1.2,1.3,1.1,3.3,0,4.5c-1.2,1.2-3.2,1.3-4.5,0
	C39.4,65.1,39.4,63,40.7,61.7z M35.1,67.7c1.2-1.4,3.2-1.5,4.5-0.3c1.3,1.2,1.4,3.2,0.3,4.4c-1.1,1.3-3.1,1.4-4.4,0.3
	C34,71.1,33.9,69,35.1,67.7z M29.9,74c1.1-1.4,3.2-1.7,4.5-0.6c1.4,1.1,1.6,3.1,0.5,4.4c-1,1.4-3,1.7-4.4,0.6
	C29.1,77.5,28.8,75.5,29.9,74z M25.1,80.8c1-1.5,3-1.9,4.4-0.9c1.4,1,1.8,2.9,0.9,4.4c-1,1.4-2.9,1.9-4.4,1
	C24.6,84.3,24.1,82.3,25.1,80.8z M20.9,87.8c0.9-1.6,2.9-2.2,4.3-1.3c1.5,0.9,2,2.8,1.2,4.3c-0.8,1.5-2.7,2.1-4.3,1.3
	C20.7,91.4,20,89.4,20.9,87.8z M17.3,95.2c0.7-1.7,2.7-2.4,4.2-1.6c1.6,0.8,2.2,2.6,1.6,4.2c-0.7,1.6-2.5,2.3-4.1,1.7
	S16.5,96.9,17.3,95.2z M14.2,103c0.6-1.7,2.5-2.6,4.1-2c1.6,0.6,2.4,2.4,1.9,4c-0.5,1.6-2.3,2.5-4,2.1
	C14.6,106.5,13.7,104.7,14.2,103z M11.9,110.9c0.5-1.8,2.2-2.9,3.9-2.4c1.7,0.5,2.7,2.2,2.2,3.8c-0.4,1.7-2.1,2.7-3.8,2.4
	S11.5,112.7,11.9,110.9z M16.6,120c-0.3,1.7-1.8,2.9-3.5,2.7c-1.7-0.2-3-1.8-2.7-3.6c0.3-1.8,1.9-3,3.7-2.7
	C15.7,116.7,16.8,118.3,16.6,120z M15.9,127.6c-0.1,1.7-1.5,3.1-3.3,3.1s-3.2-1.5-3.1-3.3c0.1-1.9,1.6-3.2,3.4-3.1
	C14.7,124.5,16,126,15.9,127.6z M15.9,135.4c0.1,1.7-1.2,3.2-3,3.3c-1.7,0.2-3.3-1.2-3.4-3c-0.1-1.8,1.3-3.3,3.1-3.3
	S15.8,133.7,15.9,135.4z M16.6,143c0.2,1.7-0.9,3.3-2.6,3.6c-1.7,0.3-3.4-0.9-3.7-2.7c-0.3-1.8,1-3.5,2.7-3.7
	C14.8,140.2,16.4,141.4,16.6,143z M11.9,152.1c-0.4-1.8,0.7-3.5,2.4-3.8c1.7-0.3,3.4,0.7,3.8,2.4c0.4,1.7-0.6,3.4-2.2,3.8
	C14.1,154.9,12.4,153.9,11.9,152.1z M14.2,160.1c-0.6-1.7,0.3-3.6,2-4.1c1.7-0.5,3.5,0.4,4,2c0.5,1.6-0.3,3.4-1.9,4
	C16.7,162.7,14.8,161.8,14.2,160.1z M17.3,167.8c-0.8-1.7,0-3.6,1.6-4.2c1.6-0.6,3.5,0.1,4.1,1.7c0.7,1.5,0,3.4-1.6,4.2
	C19.9,170.2,18,169.5,17.3,167.8z M20.9,175.2c-0.9-1.6-0.3-3.6,1.3-4.4c1.6-0.8,3.5-0.2,4.3,1.3s0.3,3.4-1.2,4.3
	C23.8,177.4,21.8,176.8,20.9,175.2z M25.1,182.3c-1-1.5-0.5-3.5,1-4.4c1.5-0.9,3.4-0.5,4.4,1c0.9,1.4,0.6,3.3-0.9,4.4
	C28.1,184.2,26.2,183.8,25.1,182.3z M29.9,189c-1.1-1.4-0.8-3.5,0.6-4.5c1.4-1,3.4-0.7,4.4,0.6c1.1,1.4,0.8,3.3-0.5,4.4
	C33,190.7,31,190.4,29.9,189z M35.1,195.3c-1.2-1.4-1.1-3.4,0.3-4.5c1.3-1.1,3.3-0.9,4.4,0.3c1.1,1.3,1,3.3-0.3,4.5
	C38.3,196.8,36.3,196.7,35.1,195.3z M40.7,201.3c-1.3-1.3-1.3-3.3,0-4.5c1.3-1.2,3.3-1.1,4.5,0.1c1.2,1.2,1.2,3.2,0,4.4
	C44,202.5,41.9,202.6,40.7,201.3z M46.6,206.9c-1.4-1.2-1.4-3.3-0.3-4.5c1.2-1.3,3.2-1.4,4.4-0.2c1.3,1.1,1.4,3.1,0.3,4.4
	C50,208,48,208.1,46.6,206.9z M52.9,212.1c-1.4-1.1-1.6-3.1-0.5-4.5c1.1-1.3,3.1-1.5,4.4-0.5c1.4,1.1,1.6,3,0.6,4.4
	C56.3,213,54.3,213.3,52.9,212.1z M59.4,217c-1.5-1.1-1.8-3-0.8-4.4c1.1-1.4,3-1.7,4.4-0.7c1.4,1,1.7,3,0.8,4.4
	C62.8,217.7,60.8,218.1,59.4,217z M66,221.6c-1.5-1-1.9-2.9-1-4.4c1-1.4,2.9-1.8,4.4-0.9c1.4,1,1.9,2.9,1,4.4S67.6,222.5,66,221.6z
	 M73,225.8c-1.6-0.9-2.1-2.9-1.2-4.3c0.9-1.5,2.9-2,4.3-1.1c1.5,0.9,2,2.8,1.2,4.3C76.5,226.2,74.5,226.7,73,225.8z M80.1,229.7
	c-1.6-0.8-2.2-2.8-1.3-4.3c0.8-1.5,2.7-2.1,4.3-1.3c1.5,0.8,2.2,2.7,1.4,4.3C83.6,229.9,81.7,230.5,80.1,229.7z M87.3,233.3
	c-1.6-0.8-2.3-2.7-1.5-4.3c0.8-1.6,2.7-2.2,4.2-1.5c1.6,0.7,2.2,2.6,1.5,4.2C90.9,233.3,89,234,87.3,233.3z M94.7,236.5
	c-1.6-0.7-2.4-2.5-1.7-4.1c0.7-1.6,2.5-2.4,4.1-1.7c1.6,0.7,2.4,2.5,1.7,4.1C98.3,236.4,96.4,237.2,94.7,236.5z M102.2,239.5
	c-1.7-0.6-2.5-2.5-1.9-4.1c0.6-1.6,2.5-2.4,4.1-1.8c1.6,0.6,2.5,2.4,1.9,4.1C105.7,239.3,103.9,240.1,102.2,239.5z M109.9,242.2
	c-1.7-0.5-2.6-2.4-2-4c0.6-1.6,2.4-2.5,4-2c1.6,0.6,2.5,2.3,2,4C113.3,241.8,111.5,242.7,109.9,242.2z M117.5,244.6
	c-1.7-0.5-2.7-2.3-2.2-4c0.5-1.7,2.3-2.6,4-2.1c1.6,0.5,2.6,2.2,2.2,3.9C121,244.1,119.2,245.1,117.5,244.6z M125.3,246.7
	c-1.7-0.5-2.7-2.2-2.3-3.9c0.5-1.7,2.2-2.7,3.8-2.3c1.7,0.5,2.7,2.1,2.3,3.8C128.7,246.1,127,247.1,125.3,246.7z M133.1,248.6
	c-1.7-0.4-2.8-2.1-2.4-3.8c0.4-1.7,2.1-2.8,3.8-2.4c1.7,0.4,2.8,2.1,2.4,3.8C136.6,247.9,134.9,249,133.1,248.6z M144.7,247.6
	c-0.3,1.7-1.9,2.9-3.7,2.5c-1.8-0.3-2.9-2-2.5-3.7s2-2.8,3.7-2.5C143.9,244.3,145,245.9,144.7,247.6z M152.6,248.9
	c-0.2,1.7-1.9,2.9-3.6,2.7c-1.7-0.3-2.9-1.9-2.7-3.6c0.3-1.7,1.9-2.9,3.6-2.7S152.8,247.1,152.6,248.9z M160.5,249.8
	c-0.2,1.7-1.8,3-3.5,2.8c-1.8-0.2-3-1.8-2.8-3.6c0.2-1.7,1.8-2.9,3.5-2.7C159.4,246.5,160.6,248.1,160.5,249.8z M164.9,253.5
	c-1.8-0.2-3.1-1.7-2.9-3.5c0.2-1.7,1.7-3,3.5-2.9c1.7,0.2,3,1.7,2.9,3.4C168.2,252.3,166.7,253.6,164.9,253.5z M172.9,254
	c-1.8-0.1-3.1-1.6-3-3.3c0.1-1.7,1.6-3.1,3.3-3c1.7,0.1,3.1,1.6,3,3.3S174.7,254.1,172.9,254z M181,254.4c-1.8,0-3.2-1.6-3.1-3.3
	c0.1-1.7,1.5-3.1,3.2-3.1c1.7,0.1,3.1,1.5,3.1,3.3C184.2,253,182.7,254.4,181,254.4z M189,254.5c-1.8,0-3.2-1.4-3.2-3.2
	c0-1.7,1.4-3.2,3.2-3.2c1.7,0,3.2,1.4,3.2,3.2C192.2,253.1,190.7,254.5,189,254.5z M197,254.4c-1.8,0-3.2-1.4-3.3-3.1
	c0-1.8,1.4-3.2,3.1-3.3c1.7,0,3.2,1.3,3.3,3.1C200.2,252.8,198.8,254.4,197,254.4z M205,254c-1.8,0.1-3.3-1.2-3.3-3s1.3-3.2,3-3.3
	c1.7-0.1,3.2,1.2,3.3,3C208.1,252.4,206.8,254,205,254z M213,253.5c-1.8,0.2-3.3-1.1-3.5-2.9c-0.1-1.7,1.1-3.3,2.9-3.4
	c1.7-0.2,3.3,1.1,3.4,2.9C216.1,251.7,214.8,253.3,213,253.5z M221,252.6c-1.7,0.2-3.3-1.1-3.5-2.8c-0.2-1.7,1.1-3.3,2.8-3.5
	c1.7-0.2,3.3,1,3.5,2.7C224,250.8,222.8,252.4,221,252.6z M229,251.5c-1.8,0.3-3.4-1-3.7-2.7c-0.2-1.7,1-3.3,2.7-3.6
	c1.7-0.3,3.3,0.9,3.6,2.7C231.9,249.6,230.8,251.3,229,251.5z M236.9,250.2c-1.7,0.3-3.4-0.8-3.7-2.5c-0.3-1.7,0.8-3.4,2.5-3.7
	c1.7-0.3,3.3,0.8,3.7,2.5C239.8,248.2,238.7,249.8,236.9,250.2z M244.8,248.6c-1.7,0.4-3.4-0.7-3.8-2.4c-0.3-1.7,0.7-3.4,2.4-3.8
	c1.7-0.4,3.4,0.7,3.8,2.4C247.6,246.5,246.5,248.2,244.8,248.6z M252.6,246.7c-1.7,0.4-3.5-0.6-3.8-2.3c-0.4-1.7,0.6-3.4,2.3-3.8
	c1.7-0.4,3.4,0.6,3.9,2.3C255.4,244.5,254.4,246.3,252.6,246.7z M260.4,244.6c-1.7,0.5-3.5-0.5-4-2.2c-0.5-1.7,0.5-3.4,2.2-3.9
	c1.6-0.5,3.4,0.5,3.9,2.1C263.1,242.3,262.1,244.1,260.4,244.6z M268.1,242.2c-1.7,0.6-3.5-0.3-4-2c-0.5-1.7,0.4-3.4,2.1-4
	c1.6-0.5,3.4,0.3,4,2C270.7,239.8,269.8,241.6,268.1,242.2z M275.7,239.5c-1.7,0.6-3.5-0.2-4.1-1.9c-0.6-1.7,0.3-3.5,1.9-4.1
	c1.6-0.6,3.4,0.2,4.1,1.8C278.2,237,277.4,238.9,275.7,239.5z M283.2,236.5c-1.6,0.7-3.5-0.1-4.1-1.7c-0.6-1.6,0.1-3.4,1.7-4.1
	c1.6-0.7,3.4,0.1,4.1,1.7C285.6,234,284.9,235.8,283.2,236.5z M290.6,233.3c-1.6,0.7-3.5,0-4.2-1.6c-0.7-1.6,0-3.5,1.6-4.2
	c1.6-0.8,3.5-0.1,4.2,1.5C292.9,230.6,292.2,232.5,290.6,233.3z M297.8,229.7c-1.6,0.8-3.5,0.2-4.3-1.4c-0.8-1.6-0.2-3.5,1.4-4.3
	c1.5-0.8,3.4-0.2,4.3,1.3C300,226.9,299.4,228.9,297.8,229.7z M304.9,225.8c-1.6,0.9-3.5,0.4-4.4-1.2c-0.8-1.5-0.3-3.4,1.2-4.3
	c1.5-0.9,3.4-0.4,4.3,1.1C307,222.9,306.5,224.9,304.9,225.8z M311.9,221.6c-1.5,1-3.5,0.5-4.4-1s-0.5-3.4,1-4.4
	c1.4-0.9,3.4-0.5,4.4,0.9C313.8,218.6,313.4,220.6,311.9,221.6z M318.6,217c-1.5,1-3.5,0.7-4.4-0.8s-0.6-3.4,0.8-4.4
	c1.4-1,3.4-0.7,4.4,0.7C320.4,214,320.1,216,318.6,217z M325.1,212.1c-1.4,1.1-3.4,0.9-4.5-0.5c-1.1-1.4-0.8-3.4,0.5-4.4
	c1.4-1.1,3.3-0.9,4.4,0.5C326.7,209,326.5,211,325.1,212.1z M331.3,206.9c-1.4,1.2-3.4,1.1-4.5-0.3c-1.1-1.3-1-3.3,0.3-4.4
	c1.3-1.1,3.3-1.1,4.4,0.2C332.8,203.6,332.7,205.7,331.3,206.9z M337.3,201.3c-1.3,1.3-3.3,1.3-4.5,0c-1.2-1.3-1.2-3.2,0-4.4
	c1.2-1.2,3.2-1.3,4.4-0.1C338.5,198,338.6,200,337.3,201.3z M342.9,195.3c-1.2,1.4-3.2,1.5-4.5,0.3c-1.3-1.2-1.4-3.2-0.2-4.5
	c1.1-1.3,3.1-1.4,4.4-0.3C343.9,191.9,344.1,194,342.9,195.3z M348.1,189c-1.1,1.4-3.2,1.7-4.5,0.6c-1.3-1.1-1.6-3.1-0.5-4.4
	c1-1.3,3-1.6,4.4-0.6C348.9,185.5,349.2,187.5,348.1,189z M352.8,182.3c-1,1.5-3,1.9-4.4,0.9c-1.4-1-1.8-3-0.9-4.4
	c1-1.4,2.9-1.9,4.3-1C353.3,178.7,353.8,180.8,352.8,182.3z M357,175.2c-0.9,1.6-2.9,2.2-4.4,1.3c-1.5-0.9-2-2.8-1.2-4.3
	c0.8-1.5,2.7-2.1,4.3-1.3C357.3,171.6,357.9,173.6,357,175.2z M360.7,167.8c-0.8,1.7-2.7,2.4-4.3,1.6c-1.6-0.8-2.2-2.7-1.5-4.2
	c0.7-1.6,2.5-2.3,4.1-1.7C360.6,164.2,361.4,166.1,360.7,167.8z M363.7,160.1c-0.6,1.7-2.4,2.6-4.1,2c-1.6-0.6-2.5-2.4-1.9-4
	c0.5-1.6,2.3-2.5,4-2C363.3,156.5,364.3,158.3,363.7,160.1z M366,152.1c-0.4,1.8-2.2,2.9-3.9,2.4c-1.7-0.5-2.7-2.2-2.3-3.8
	c0.4-1.6,2.1-2.7,3.8-2.4C365.4,148.6,366.5,150.3,366,152.1z M361.3,143c0.2-1.7,1.8-2.9,3.5-2.7c1.7,0.2,3,1.8,2.7,3.7
	c-0.2,1.8-1.9,3-3.6,2.7C362.2,146.3,361.1,144.7,361.3,143z M362.1,135.4c0.1-1.7,1.5-3,3.3-3c1.7,0,3.2,1.5,3,3.3
	c-0.1,1.9-1.6,3.2-3.3,3C363.3,138.6,362,137.1,362.1,135.4z M360.2,139.1c-0.3,2.5-0.6,5.1-1.1,7.5c-0.5,2.5-1.1,5-1.8,7.4
	c-0.7,2.4-1.5,4.8-2.4,7.2c-1,2.4-2,4.7-3.1,7c-1.1,2.3-2.4,4.5-3.7,6.7c-1.3,2.2-2.7,4.3-4.2,6.4c-1.4,2.1-3,4.1-4.6,6.1
	c-1.6,2-3.3,3.9-5.1,5.8c-1.7,1.9-3.6,3.7-5.4,5.4c-1.9,1.7-3.8,3.5-5.7,5.1c-2,1.6-4,3.2-6,4.8c-2.1,1.6-4.1,3-6.3,4.5
	c-2.2,1.4-4.3,2.8-6.5,4.2c-2.2,1.3-4.4,2.6-6.7,3.8c-2.2,1.3-4.6,2.4-6.9,3.6c-2.3,1.1-4.6,2.2-7,3.3c-2.4,1-4.8,2-7.1,3
	c-2.4,0.9-4.8,1.8-7.3,2.7c-2.4,0.9-4.9,1.7-7.3,2.4c-2.5,0.8-5,1.5-7.5,2.2c-2.5,0.7-5,1.3-7.5,1.9c-2.5,0.6-5.1,1.1-7.6,1.7
	c-2.5,0.5-5.1,1-7.6,1.4c-2.5,0.4-5.1,0.8-7.7,1.2c-2.6,0.3-5.1,0.6-7.7,0.9c-2.6,0.3-5.2,0.5-7.8,0.7c-2.6,0.2-5.2,0.3-7.8,0.5
	c-2.6,0.1-5.2,0.2-7.8,0.2c-2.6,0-5.2,0-7.8,0c-2.6,0-5.2-0.1-7.8-0.2c-2.6-0.1-5.2-0.3-7.8-0.5c-2.6-0.2-5.2-0.5-7.8-0.7
	c-2.6-0.3-5.2-0.6-7.7-0.9c-2.6-0.3-5.1-0.8-7.7-1.2c-2.6-0.4-5.1-0.9-7.7-1.4c-2.5-0.5-5.1-1.1-7.6-1.7c-2.5-0.6-5.1-1.3-7.5-1.9
	c-2.5-0.7-5-1.4-7.5-2.2c-2.5-0.8-4.9-1.6-7.4-2.4c-2.4-0.9-4.9-1.7-7.3-2.7c-2.4-1-4.8-2-7.1-3c-2.4-1.1-4.7-2.2-7-3.3
	c-2.3-1.1-4.6-2.3-6.9-3.6c-2.2-1.2-4.5-2.5-6.7-3.8c-2.2-1.4-4.4-2.7-6.5-4.2s-4.2-2.9-6.3-4.5c-2.1-1.6-4.1-3.2-6-4.8
	c-2-1.7-3.9-3.4-5.8-5.1c-1.9-1.7-3.7-3.6-5.4-5.4c-1.7-1.9-3.5-3.8-5.1-5.8c-1.6-2-3.2-4-4.6-6.1c-1.5-2.1-2.9-4.3-4.2-6.4
	c-1.3-2.2-2.5-4.4-3.7-6.7c-1.1-2.3-2.2-4.6-3.1-7c-0.9-2.4-1.7-4.8-2.5-7.2c-0.7-2.4-1.3-4.9-1.8-7.4c-0.5-2.5-0.8-5-1.1-7.5
	c-0.2-2.5-0.3-5.1-0.4-7.6c0-2.5,0.2-5.1,0.4-7.6c0.2-2.5,0.6-5,1.1-7.5c0.5-2.5,1.1-4.9,1.8-7.4c0.7-2.4,1.6-4.8,2.5-7.2
	c0.9-2.4,1.9-4.7,3.1-7c1.1-2.3,2.4-4.5,3.7-6.7c1.3-2.2,2.7-4.3,4.2-6.4c1.5-2.1,3-4.1,4.6-6.1c1.6-2,3.3-3.9,5.1-5.8
	c1.7-1.9,3.5-3.7,5.4-5.4c1.9-1.8,3.8-3.5,5.8-5.1c2-1.7,4-3.3,6-4.8c2.1-1.6,4.1-3,6.3-4.5c2.1-1.4,4.3-2.9,6.5-4.2
	c2.2-1.3,4.4-2.6,6.7-3.9c2.3-1.2,4.6-2.4,6.9-3.6c2.3-1.1,4.7-2.2,7-3.3c2.4-1,4.8-2.1,7.1-3c2.4-1,4.8-1.9,7.3-2.7
	c2.4-0.9,4.9-1.7,7.4-2.5c2.5-0.8,4.9-1.5,7.5-2.2c2.5-0.7,5-1.3,7.5-1.9c2.5-0.6,5.1-1.1,7.6-1.7c2.5-0.5,5.1-1,7.7-1.4
	c2.5-0.5,5.1-0.8,7.7-1.2c2.5-0.4,5.1-0.7,7.7-1c2.6-0.3,5.1-0.5,7.8-0.7c2.6-0.2,5.2-0.3,7.8-0.5c2.6-0.1,5.2-0.2,7.8-0.2
	c2.6,0,5.2,0,7.8,0c2.6,0,5.2,0.1,7.8,0.2c2.6,0.1,5.2,0.3,7.8,0.5c2.6,0.2,5.2,0.4,7.8,0.7c2.6,0.3,5.1,0.6,7.7,1
	c2.6,0.3,5.1,0.7,7.7,1.2c2.5,0.4,5.1,0.9,7.6,1.4s5.1,1.1,7.6,1.7c2.5,0.6,5,1.3,7.5,1.9c2.5,0.7,5,1.4,7.5,2.2
	c2.5,0.8,4.9,1.6,7.3,2.5c2.5,0.8,4.9,1.7,7.3,2.7c2.4,1,4.8,2,7.1,3c2.4,1.1,4.7,2.1,7,3.3c2.3,1.1,4.6,2.4,6.9,3.6
	c2.3,1.3,4.5,2.5,6.7,3.9c2.2,1.3,4.4,2.7,6.5,4.2c2.1,1.4,4.2,2.9,6.3,4.5c2.1,1.5,4.1,3.1,6,4.8c2,1.6,3.9,3.3,5.7,5.1
	c1.9,1.7,3.7,3.6,5.4,5.4c1.7,1.9,3.4,3.8,5.1,5.8c1.6,2,3.2,4,4.6,6.1c1.5,2.1,2.9,4.2,4.2,6.4c1.3,2.2,2.5,4.4,3.7,6.7
	c1.1,2.3,2.1,4.6,3.1,7c0.9,2.4,1.7,4.8,2.4,7.2c0.7,2.4,1.3,4.9,1.8,7.4c0.5,2.5,0.8,5,1.1,7.5c0.2,2.5,0.3,5.1,0.3,7.6
	C360.5,134,360.4,136.6,360.2,139.1z"/>
<path class="st0" d="M377.5,122.5c-0.3-3-0.7-6-1.3-9c-0.6-3-1.3-5.9-2.1-8.8c-0.8-2.9-1.8-5.7-2.9-8.5c-1.1-2.8-2.3-5.5-3.6-8.2
	c-1.3-2.7-2.7-5.3-4.3-7.8c-1.5-2.5-3.1-5-4.8-7.4c-1.7-2.4-3.5-4.8-5.3-7c-1.9-2.3-3.8-4.5-5.8-6.6c-2-2.1-4-4.1-6.2-6.2
	c-2.1-2-4.3-3.9-6.5-5.7c-2.2-1.9-4.4-3.7-6.7-5.4c-2.3-1.7-4.6-3.4-7-5s-4.8-3.2-7.2-4.6c-2.4-1.5-4.9-2.9-7.4-4.3
	c-2.5-1.4-5-2.7-7.5-3.9s-5.1-2.4-7.7-3.6c-2.6-1.2-5.2-2.2-7.8-3.3c-2.6-1.1-5.2-2.1-7.9-3c-2.6-1-5.3-1.8-8-2.7
	c-2.7-0.8-5.4-1.6-8.1-2.4c-2.7-0.7-5.4-1.4-8.2-2.1c-2.7-0.6-5.4-1.2-8.2-1.8c-2.8-0.6-5.5-1.1-8.3-1.5c-2.8-0.5-5.5-0.9-8.3-1.3
	c-2.8-0.4-5.6-0.7-8.3-1s-5.6-0.5-8.3-0.8c-2.8-0.2-5.6-0.4-8.4-0.5c-2.8-0.1-5.6-0.2-8.3-0.2c-2.8,0-5.6,0-8.4,0
	c-2.8,0-5.6,0.1-8.4,0.2s-5.6,0.3-8.3,0.5c-2.8,0.2-5.6,0.5-8.3,0.8c-2.8,0.3-5.6,0.6-8.3,1c-2.8,0.4-5.6,0.8-8.3,1.3
	c-2.8,0.5-5.5,1-8.3,1.5c-2.7,0.6-5.5,1.1-8.2,1.8c-2.7,0.6-5.4,1.4-8.1,2.1c-2.7,0.8-5.4,1.6-8.1,2.4c-2.7,0.8-5.4,1.7-8,2.7
	c-2.7,0.9-5.3,1.9-7.9,3c-2.6,1-5.2,2.1-7.8,3.3s-5.1,2.3-7.7,3.6S74,26.6,71.5,28c-2.5,1.4-4.9,2.8-7.4,4.3c-2.4,1.5-4.8,3-7.2,4.6
	c-2.4,1.6-4.7,3.2-7,5c-2.3,1.7-4.6,3.5-6.8,5.4C41,49.1,38.8,51,36.7,53c-2.1,2-4.1,4.1-6.1,6.2c-2,2.1-3.9,4.3-5.8,6.6
	c-1.9,2.2-3.7,4.6-5.4,7c-1.7,2.4-3.3,4.9-4.8,7.4c-1.5,2.5-2.9,5.1-4.3,7.8c-1.3,2.7-2.5,5.4-3.7,8.2c-1.1,2.8-2.1,5.6-2.9,8.5
	c-0.8,2.9-1.6,5.9-2.1,8.8s-1,5.9-1.3,9c-0.3,3-0.4,6-0.4,9c0,3,0.2,6,0.4,9c0.3,3,0.7,6,1.3,9s1.3,5.9,2.1,8.8
	c0.8,2.9,1.8,5.7,2.9,8.5c1.1,2.8,2.3,5.6,3.7,8.2s2.7,5.3,4.3,7.8s3.2,5,4.8,7.4c1.7,2.4,3.5,4.8,5.4,7c1.9,2.3,3.8,4.4,5.8,6.6
	c2,2.1,4,4.2,6.1,6.2c2.1,2,4.3,3.9,6.5,5.8c2.2,1.9,4.4,3.7,6.8,5.4c2.3,1.7,4.6,3.4,7,5c2.4,1.6,4.8,3.2,7.2,4.6
	c2.4,1.5,4.9,2.9,7.4,4.3c2.5,1.3,5,2.7,7.6,3.9s5.1,2.4,7.7,3.6c2.6,1.1,5.2,2.2,7.8,3.3c2.6,1,5.2,2,7.9,3c2.7,1,5.3,1.8,8,2.7
	c2.7,0.8,5.4,1.6,8.1,2.4c2.7,0.8,5.4,1.4,8.1,2.1c2.7,0.6,5.5,1.3,8.2,1.8c2.7,0.5,5.5,1.1,8.3,1.5c2.7,0.5,5.5,0.9,8.3,1.3
	c2.8,0.4,5.5,0.7,8.3,1c2.7,0.3,5.6,0.5,8.3,0.7c2.8,0.2,5.6,0.4,8.3,0.5c2.8,0.2,5.6,0.2,8.4,0.3c2.8,0,5.6,0,8.4,0
	c2.8,0,5.6-0.1,8.3-0.3c2.8-0.1,5.6-0.3,8.4-0.5c2.8-0.2,5.6-0.5,8.3-0.7c2.8-0.3,5.6-0.6,8.3-1c2.8-0.4,5.5-0.8,8.3-1.3
	c2.7-0.5,5.5-1,8.3-1.5c2.7-0.6,5.5-1.2,8.2-1.8c2.7-0.6,5.4-1.3,8.2-2.1c2.7-0.7,5.4-1.5,8.1-2.4c2.7-0.8,5.4-1.7,8-2.7
	c2.7-1,5.3-1.9,7.9-3c2.6-1,5.2-2.1,7.8-3.3c2.6-1.1,5.1-2.3,7.7-3.6s5.1-2.6,7.5-3.9c2.5-1.4,5-2.8,7.4-4.3c2.4-1.4,4.8-3,7.2-4.6
	c2.4-1.6,4.7-3.3,7-5s4.5-3.5,6.7-5.4c2.2-1.9,4.4-3.8,6.5-5.8c2.1-2,4.2-4,6.2-6.2s3.9-4.3,5.8-6.6c1.9-2.2,3.6-4.6,5.3-7
	c1.7-2.4,3.3-4.9,4.8-7.4c1.6-2.5,3-5.2,4.3-7.8c1.3-2.7,2.5-5.4,3.6-8.2c1.1-2.8,2.1-5.6,2.9-8.5c0.8-2.9,1.5-5.8,2.1-8.8
	c0.6-3,1-6,1.3-9c0.3-3,0.4-6,0.5-9C377.9,128.5,377.8,125.5,377.5,122.5z M372.2,148.9c-0.6,2.9-1.3,5.7-2.1,8.5
	c-0.8,2.8-1.8,5.6-2.8,8.3c-1.1,2.7-2.2,5.4-3.5,7.9c-1.3,2.6-2.6,5.1-4.1,7.6c-1.5,2.5-3,4.9-4.7,7.2c-1.6,2.3-3.4,4.6-5.2,6.8
	c-1.8,2.2-3.7,4.3-5.6,6.4c-1.9,2.1-4,4.1-6,6c-2.1,1.9-4.2,3.8-6.3,5.6c-2.2,1.8-4.4,3.5-6.6,5.2c-2.2,1.7-4.5,3.3-6.8,4.9
	c-2.3,1.6-4.7,3-7,4.5c-2.4,1.4-4.8,2.9-7.3,4.2c-2.4,1.3-4.9,2.6-7.4,3.8c-2.5,1.2-5,2.4-7.5,3.5c-2.5,1.1-5.1,2.2-7.6,3.2
	c-2.5,1-5.1,2-7.8,2.9c-2.6,0.9-5.2,1.8-7.8,2.6c-2.7,0.8-5.3,1.6-7.9,2.3c-2.7,0.7-5.3,1.4-8,2.1c-2.7,0.6-5.4,1.2-8.1,1.7
	c-2.7,0.6-5.4,1.1-8.1,1.5c-2.7,0.5-5.4,0.9-8.1,1.3c-2.7,0.3-5.5,0.7-8.2,1c-2.7,0.3-5.5,0.5-8.2,0.7s-5.5,0.4-8.2,0.5
	c-2.7,0.1-5.4,0.2-8.2,0.2c-2.7,0-5.5,0-8.2,0c-2.7,0-5.5-0.1-8.2-0.2s-5.5-0.3-8.2-0.5c-2.7-0.2-5.4-0.5-8.2-0.7
	c-2.7-0.3-5.4-0.6-8.2-1c-2.7-0.4-5.4-0.8-8.1-1.3s-5.4-1-8.1-1.5c-2.7-0.5-5.4-1.1-8.1-1.7c-2.7-0.6-5.3-1.3-8-2.1
	c-2.7-0.7-5.3-1.5-7.9-2.3c-2.6-0.8-5.2-1.7-7.8-2.6c-2.6-0.9-5.2-1.9-7.8-2.9c-2.6-1-5.1-2.1-7.7-3.2c-2.5-1.1-5-2.3-7.5-3.5
	c-2.5-1.2-4.9-2.5-7.4-3.8c-2.4-1.3-4.8-2.7-7.2-4.2c-2.4-1.4-4.7-2.9-7-4.5c-2.3-1.6-4.6-3.2-6.8-4.9c-2.2-1.7-4.4-3.4-6.6-5.2
	c-2.2-1.8-4.3-3.7-6.3-5.6s-4.1-3.9-6-6c-1.9-2.1-3.8-4.2-5.6-6.4c-1.8-2.2-3.5-4.5-5.2-6.8c-1.7-2.4-3.2-4.8-4.7-7.2
	c-1.5-2.4-2.9-5-4.1-7.6c-1.3-2.6-2.4-5.2-3.5-7.9s-2-5.4-2.8-8.3c-0.8-2.8-1.5-5.6-2.1-8.5c-0.6-2.9-1-5.8-1.3-8.7
	c-0.3-2.9-0.4-5.8-0.4-8.7s0.2-5.9,0.4-8.7c0.3-2.9,0.7-5.8,1.3-8.7c0.5-2.9,1.3-5.7,2.1-8.5c0.8-2.8,1.7-5.6,2.8-8.3
	s2.2-5.3,3.5-7.9c1.3-2.6,2.7-5.1,4.1-7.6c1.5-2.4,3-4.9,4.7-7.2c1.6-2.4,3.4-4.6,5.2-6.8c1.8-2.2,3.7-4.3,5.6-6.4
	c1.9-2.1,3.9-4.1,6-6c2.1-1.9,4.1-3.8,6.3-5.6c2.2-1.8,4.3-3.6,6.6-5.2c2.2-1.7,4.5-3.3,6.8-4.9c2.3-1.6,4.7-3.1,7-4.5
	c2.4-1.4,4.8-2.8,7.2-4.1c2.4-1.3,4.9-2.6,7.4-3.8c2.5-1.2,5-2.4,7.5-3.5c2.5-1.1,5.1-2.2,7.7-3.2c2.5-1,5.1-2,7.8-2.9
	c2.6-0.9,5.2-1.8,7.8-2.6c2.6-0.8,5.2-1.6,7.9-2.3c2.7-0.7,5.3-1.4,8-2.1c2.7-0.6,5.4-1.2,8.1-1.8c2.7-0.5,5.4-1,8.1-1.5
	c2.7-0.5,5.4-0.9,8.1-1.3c2.7-0.4,5.4-0.7,8.2-1c2.7-0.3,5.4-0.5,8.2-0.7c2.7-0.2,5.5-0.4,8.2-0.5c2.7-0.1,5.5-0.2,8.2-0.2
	c2.7,0,5.5,0,8.2,0c2.7,0,5.5,0.1,8.2,0.2c2.7,0.1,5.5,0.3,8.2,0.5c2.7,0.2,5.5,0.5,8.2,0.7c2.7,0.3,5.4,0.6,8.2,1
	c2.7,0.4,5.4,0.8,8.1,1.3c2.7,0.5,5.4,1,8.1,1.5c2.7,0.6,5.4,1.1,8.1,1.8c2.7,0.6,5.3,1.3,8,2.1c2.7,0.7,5.3,1.5,7.9,2.3
	c2.6,0.8,5.2,1.7,7.8,2.6c2.6,1,5.2,1.9,7.8,2.9c2.6,1,5.1,2.1,7.6,3.2c2.5,1.1,5.1,2.3,7.5,3.5c2.5,1.2,4.9,2.5,7.4,3.8
	c2.5,1.3,4.9,2.7,7.3,4.1c2.4,1.4,4.7,3,7,4.5c2.3,1.6,4.6,3.2,6.8,4.9c2.2,1.7,4.4,3.4,6.6,5.2c2.1,1.8,4.3,3.7,6.3,5.6
	c2,1.9,4,4,6,6c1.9,2.1,3.8,4.2,5.6,6.4c1.8,2.2,3.5,4.4,5.2,6.8c1.7,2.3,3.2,4.8,4.7,7.2c1.5,2.5,2.9,5,4.1,7.6
	c1.3,2.6,2.5,5.2,3.5,7.9c1,2.7,2,5.5,2.8,8.3c0.8,2.8,1.5,5.6,2.1,8.5c0.5,2.9,1,5.7,1.2,8.7c0.3,2.9,0.4,5.8,0.4,8.7
	s-0.1,5.8-0.4,8.7C373.2,143.2,372.7,146.1,372.2,148.9z"/>
<path class="st0" d="M261.5,168.7c-5.2-10.5-17-18.5-29.1-19c-4.9-7-12.1-12.4-20.3-15.1c2.4-6.5,4.8-13.1,7.1-19.7
	c1.2-3.5,2.5-7.1,3.8-10.6c8,0.8,16.2-0.1,23.6-2.3c14-4.2,36.6-21.6,36-37.8c-0.8-23.7-25-18.9-37.9-8.1c-1.2,1-2.3,2.1-3.4,3.1
	C229.1,47.8,206.5,40,192.3,51c-14.5,11.2-7.8,31,3.3,41.6c5.9,5.6,13.3,9.1,21.2,10.8c-2,5.6-3.9,11.2-5.7,16.5
	c-1.5,4.4-3.1,8.9-4.6,13.4c-0.3,0-0.6-0.1-0.9-0.2c-18.6-2.6-39,5.5-49.5,21.3c-3.2,4.8-5.5,9.9-7,15.2
	c-14.9-10.8-32.3-19.2-47.6-4c-11.5,11.5-11.2,31.5,0.2,42.7c11.5,11.2,31.7,11.4,46.4,8.7c3.9-0.7,7.6-1.9,11-3.4
	c0.3,0.4,0.5,0.8,0.8,1.3c2.1,3.3,7.2,0,5.1-3.3c-0.1-0.2-0.3-0.4-0.4-0.6c5.4-3,10.1-6.9,14.4-11.3c3.1,2.2,6.3,4.3,9.6,6.3
	c18.2,11,41.4,17.7,60.5,5.3C262.6,202.3,268.8,183.5,261.5,168.7z M246.8,62.4c7.3-7.9,23.7-16.2,29.2-2
	c3.6,9.1-6.8,18.8-12.6,24.2c-10.9,10.1-23.7,14.9-38.1,13.8C230.7,85.4,237.2,72.9,246.8,62.4z M191.5,62.2
	c6.9-19.1,34.1-8.5,45.6,1.6c-8,9.6-13.6,21.6-18.2,33.7C203.2,94.4,185.1,79.8,191.5,62.2z M230.9,179.5c-2.8,7.1-13.3,9.3-18.1,3
	c-3.1-4-1.4-10.5,0.2-14.7c2.9-7.6,9.3-10.9,16.3-11.4C232.8,163.9,233.8,172.5,230.9,179.5z M177,143.9c7.9-4.4,18.1-6.1,27.4-4.9
	c-6.4,18.2-13.8,36.6-25.2,51.4c-0.5,0.6-0.9,1.1-1.4,1.7c-8.3-6.2-16.2-12.9-23.6-18.6c0-0.2,0-0.3,0.1-0.5
	C157,160.3,165.8,150.1,177,143.9z M120.5,210.9c-9.6-2-17.9-7.6-20.8-17.3c-4.4-14.6,8-32.2,23.6-30.6c8.7,0.9,17.1,7.1,24.4,12.9
	c-0.4,2.8-0.7,5.6-0.7,8.5c0,8.5,4.2,16.5,8.7,23.8C144.8,212.5,132.6,213.4,120.5,210.9z M161.4,205.5c-4.7-8.1-8.1-15.8-7.9-25.1
	c0.2,0.2,0.5,0.4,0.7,0.5c6.8,5,13.3,10.2,20,15.2C170.3,199.9,166,203.1,161.4,205.5z M227.2,212.1c-15.9,0.8-30.9-6.8-44.7-16.5
	c8.3-10,14.4-22.3,19.4-34.4c2.8-7,5.6-14,8.2-21.1c1.5,0.4,2.9,0.8,4.3,1.4c4.4,1.7,8.2,4.9,11.2,8.8c-2.9,0.6-5.7,1.7-8.3,3.4
	c-9.5,6-18,24.7-8,34.1c12.8,12,27.9-0.5,29.4-14.8c0.6-5.7-0.4-11.2-2.4-16.1c3.6,0.6,7.1,1.7,10.2,3.3c11.8,6,14.4,22.3,9.7,33.4
	C251.4,205.1,239.1,211.5,227.2,212.1z"/>
</svg>
