<?xml version="1.0" encoding="utf-8"?>
<!-- Generator: Adobe Illustrator 19.2.0, SVG Export Plug-In . SVG Version: 6.00 Build 0)  -->
<svg version="1.1"
	 id="Слой_1" image-rendering="optimizeQuality" shape-rendering="geometricPrecision" text-rendering="geometricPrecision"
	 xmlns="http://www.w3.org/2000/svg" xmlns:xlink="http://www.w3.org/1999/xlink" x="0px" y="0px" viewBox="0 0 178.4 79.8"
	 style="enable-background:new 0 0 178.4 79.8;" xml:space="preserve">
<style type="text/css">
	.st0{fill:#AD7A32;}
</style>
<path class="st0" d="M52.6,50.8c-1.5-3.1-5.1-5.5-8.6-5.6c-1.5-2.1-3.6-3.7-6-4.5c0.7-1.9,1.4-3.9,2.1-5.8c0.4-1.1,0.7-2.1,1.1-3.2
	c2.4,0.2,4.8,0,7-0.7c4.2-1.2,10.9-6.4,10.7-11.2c-0.2-7-7.4-5.6-11.3-2.4c-0.4,0.3-0.7,0.6-1,0.9c-3.6-3.4-10.3-5.7-14.5-2.5
	c-4.3,3.3-2.3,9.2,1,12.4c1.7,1.7,4,2.7,6.3,3.2c-0.6,1.7-1.1,3.3-1.7,4.9c-0.5,1.3-0.9,2.6-1.4,4c-0.1,0-0.2,0-0.3,0
	c-5.5-0.8-11.6,1.6-14.7,6.3c-0.9,1.4-1.6,2.9-2.1,4.5c-4.4-3.2-9.6-5.7-14.1-1.2c-3.4,3.4-3.3,9.4,0.1,12.7
	c3.4,3.3,9.4,3.4,13.8,2.6c1.2-0.2,2.3-0.6,3.3-1c0.1,0.1,0.2,0.2,0.2,0.4c0.6,1,2.1,0,1.5-1c0-0.1-0.1-0.1-0.1-0.2
	c1.6-0.9,3-2,4.3-3.4c0.9,0.7,1.9,1.3,2.9,1.9c5.4,3.3,12.3,5.3,18,1.6C53,60.8,54.8,55.2,52.6,50.8z M48.3,19.2
	c2.2-2.4,7-4.8,8.7-0.6c1.1,2.7-2,5.6-3.8,7.2c-3.2,3-7.1,4.4-11.3,4.1C43.5,26,45.4,22.4,48.3,19.2z M31.8,19.2
	c2.1-5.7,10.1-2.5,13.6,0.5c-2.4,2.9-4,6.4-5.4,10C35.3,28.7,29.9,24.4,31.8,19.2z M43.5,54c-0.8,2.1-3.9,2.7-5.4,0.9
	c-0.9-1.2-0.4-3.1,0-4.4c0.9-2.3,2.8-3.2,4.9-3.4C44.1,49.4,44.4,51.9,43.5,54z M27.5,43.4c2.4-1.3,5.4-1.8,8.1-1.5
	c-1.9,5.4-4.1,10.9-7.5,15.3c-0.1,0.2-0.3,0.3-0.4,0.5c-2.5-1.8-4.8-3.8-7-5.5c0,0,0-0.1,0-0.1C21.6,48.3,24.2,45.3,27.5,43.4z
	 M10.7,63.3c-2.9-0.6-5.3-2.2-6.2-5.1c-1.3-4.3,2.4-9.6,7-9.1c2.6,0.3,5.1,2.1,7.3,3.8c-0.1,0.8-0.2,1.7-0.2,2.5
	c0,2.5,1.3,4.9,2.6,7.1C17.9,63.8,14.3,64.1,10.7,63.3z M22.9,61.8c-1.4-2.4-2.4-4.7-2.4-7.5c0.1,0.1,0.1,0.1,0.2,0.2
	c2,1.5,4,3,6,4.5C25.5,60.1,24.3,61,22.9,61.8z M42.4,63.7c-4.7,0.2-9.2-2-13.3-4.9c2.5-3,4.3-6.6,5.8-10.2c0.8-2.1,1.7-4.2,2.4-6.3
	c0.4,0.1,0.9,0.3,1.3,0.4c1.3,0.5,2.4,1.5,3.3,2.6c-0.9,0.2-1.7,0.5-2.5,1c-2.8,1.8-5.4,7.3-2.4,10.1c3.8,3.6,8.3-0.2,8.7-4.4
	c0.2-1.7-0.1-3.3-0.7-4.8c1.1,0.2,2.1,0.5,3,1c3.5,1.8,4.3,6.6,2.9,9.9C49.6,61.6,46,63.5,42.4,63.7z"/>
<g>
	<path class="st0" d="M79.3,38.6c0.1,0,0.2,0,0.2-0.2v-0.8c0-5.6,0-6.6-0.1-7.8c-0.1-1.2-0.3-1.8-1.4-2.1c-0.3-0.1-0.8-0.1-1.1-0.1
		c-0.1,0-0.3-0.1-0.3-0.2c0-0.2,0.2-0.3,0.5-0.3c1.4,0,3.5,0.1,3.6,0.1s2.2-0.1,3.1-0.1c0.4,0,0.5,0.1,0.5,0.3
		c0,0.1-0.1,0.2-0.3,0.2c-0.2,0-0.4,0-0.8,0.1c-0.9,0.2-1.1,0.8-1.2,2.1c-0.1,1.2-0.1,2.2-0.1,7.8V44c0,3.5,0,6.3,0.2,7.8
		c0.1,1,0.3,1.8,1.2,2c0.4,0.1,1.2,0.1,1.4,0.1c0.2,0,0.3,0.1,0.3,0.2c0,0.2-0.2,0.3-0.5,0.3c-1.8,0-3.8-0.1-3.9-0.1
		s-2.2,0.1-3.1,0.1c-0.4,0-0.5-0.1-0.5-0.3c0-0.1,0.1-0.2,0.3-0.2c0.3,0,0.7-0.1,1-0.1c0.6-0.1,0.8-0.9,0.9-2
		c0.2-1.5,0.2-4.4,0.2-7.8v-3.8c0-0.1-0.1-0.2-0.2-0.2H65.7c-0.1,0-0.2,0-0.2,0.2V44c0,3.5,0,6.3,0.2,7.8c0.1,1,0.3,1.8,1.2,2
		c0.4,0.1,1.2,0.1,1.4,0.1c0.2,0,0.3,0.1,0.3,0.2c0,0.2-0.2,0.3-0.5,0.3c-1.8,0-3.8-0.1-3.9-0.1s-2.2,0.1-3.1,0.1
		c-0.4,0-0.5-0.1-0.5-0.3c0-0.1,0.1-0.2,0.3-0.2c0.3,0,0.7-0.1,1-0.1c0.6-0.1,0.8-0.9,0.9-2c0.2-1.5,0.2-4.4,0.2-7.8v-6.3
		c0-5.6,0-6.6-0.1-7.8c-0.1-1.2-0.3-1.8-1.4-2.1c-0.3-0.1-0.8-0.1-1.1-0.1c-0.1,0-0.3-0.1-0.3-0.2c0-0.2,0.2-0.3,0.5-0.3
		c1.4,0,3.5,0.1,3.6,0.1s2.2-0.1,3.1-0.1c0.4,0,0.5,0.1,0.5,0.3c0,0.1-0.1,0.2-0.3,0.2c-0.2,0-0.4,0-0.8,0.1
		c-0.9,0.2-1.1,0.8-1.2,2.1c-0.1,1.2-0.1,2.2-0.1,7.8v0.8c0,0.2,0.1,0.2,0.2,0.2H79.3z"/>
	<path class="st0" d="M89.4,40.8c0-5.8,3.8-14.1,12.6-14.1c7.2,0,12.6,5.1,12.6,13.5c0,8.1-5.1,14.7-12.8,14.7
		C93,54.9,89.4,47.2,89.4,40.8z M111.5,41.2c0-8.6-4.7-13.3-9.7-13.3c-5.3,0-9.3,4-9.3,11.8c0,8.4,4.5,13.8,10.2,13.8
		C105.6,53.5,111.5,51.7,111.5,41.2z"/>
	<path class="st0" d="M128.6,44c0,3.5,0,6.3,0.2,7.8c0.1,1,0.3,1.8,1.2,2c0.4,0.1,1.2,0.1,1.4,0.1c0.2,0,0.3,0.1,0.3,0.2
		c0,0.2-0.2,0.3-0.5,0.3c-1.8,0-3.8-0.1-3.9-0.1s-2.2,0.1-3.1,0.1c-0.4,0-0.5-0.1-0.5-0.3c0-0.1,0.1-0.2,0.3-0.2
		c0.3,0,0.7-0.1,1-0.1c0.6-0.1,0.8-0.9,0.9-2c0.2-1.5,0.2-4.4,0.2-7.8V28.7c-1.6,0-3.2,0-4.7,0.1c-2,0-2.8,0.3-3.3,1.2
		c-0.4,0.6-0.4,0.9-0.5,1.1c-0.1,0.3-0.2,0.4-0.3,0.4c-0.1,0-0.2-0.1-0.2-0.3c0-0.4,0.6-3.5,0.7-3.7c0.1-0.2,0.2-0.7,0.3-0.7
		c0.2,0,0.5,0.4,1.4,0.4c0.9,0.1,2.1,0.2,2.5,0.2h12c1,0,1.8-0.1,2.3-0.2c0.5-0.1,0.8-0.2,0.9-0.2c0.2,0,0.2,0.2,0.2,0.4
		c0,1.1-0.1,3.6-0.1,4c0,0.3-0.1,0.5-0.2,0.5c-0.2,0-0.2-0.1-0.3-0.6c0-0.1,0-0.3,0-0.4c-0.1-1.1-0.9-1.9-3.9-2c-1.3,0-2.7,0-4-0.1
		V44z"/>
	<path class="st0" d="M143.9,37.6c0-5.6,0-6.6-0.1-7.8c-0.1-1.2-0.3-1.8-1.4-2.1c-0.2-0.1-0.6-0.1-0.9-0.1c-0.2,0-0.4-0.1-0.4-0.2
		c0-0.2,0.2-0.3,0.5-0.3c0.7,0,1.6,0,3.6,0.1c0.2,0,6.6,0,7.3,0c0.7,0,1.3-0.1,1.5-0.2s0.3-0.1,0.4-0.1c0.1,0,0.1,0.1,0.1,0.3
		c0,0.3-0.2,0.7-0.3,1.7c0,0.5-0.1,1.2-0.1,2.2c0,0.4-0.1,0.6-0.3,0.6c-0.2,0-0.3-0.2-0.3-0.5c0-0.5-0.1-0.9-0.2-1.2
		c-0.2-0.8-0.9-1.2-2.3-1.3c-0.5-0.1-4-0.1-4.4-0.1c-0.1,0-0.2,0.1-0.2,0.4v9.9c0,0.3,0,0.4,0.2,0.4c0.4,0,4.4,0,5.1-0.1
		c0.9-0.1,1.3-0.2,1.6-0.6c0.2-0.2,0.3-0.4,0.4-0.4c0.1,0,0.2,0.1,0.2,0.3c0,0.2-0.2,0.8-0.3,2c-0.1,1.1-0.1,1.9-0.1,2.4
		c0,0.4-0.1,0.5-0.2,0.5c-0.2,0-0.2-0.3-0.2-0.6c0-0.3,0-0.7-0.1-1c-0.1-0.5-0.5-1-1.7-1.2c-0.9-0.1-4-0.2-4.6-0.2
		c-0.2,0-0.2,0.1-0.2,0.3V44c0,1.2,0,5.4,0,6.2c0.1,1.5,0.3,2.3,1.1,2.6c0.5,0.3,1.4,0.3,2.7,0.3c1,0,2,0,2.9-0.3
		c1-0.4,1.4-1.1,1.6-2.7c0.1-0.4,0.1-0.5,0.3-0.5c0.2,0,0.2,0.3,0.2,0.5c0,0.3-0.3,2.7-0.4,3.5c-0.2,0.9-0.5,0.9-1.7,0.9
		c-2.4,0-3.4-0.1-4.7-0.1c-1.3,0-2.8-0.1-4-0.1c-0.8,0-1.5,0.1-2.4,0.1c-0.4,0-0.5-0.1-0.5-0.3c0-0.1,0.2-0.2,0.4-0.2
		c0.3,0,0.5,0,0.7-0.1c0.7-0.2,1.1-0.7,1.2-3.4c0-1.4,0.1-3.2,0.1-6.4V37.6z"/>
	<path class="st0" d="M165.4,44c0,5.3,0.1,7.6,0.7,8.2c0.5,0.6,1.3,0.8,3.8,0.8c1.7,0,3.1,0,3.9-1.1c0.4-0.6,0.7-1.5,0.8-2.2
		c0-0.3,0.1-0.5,0.3-0.5c0.2,0,0.2,0.1,0.2,0.5s-0.2,2.6-0.5,3.6c-0.2,0.8-0.3,1-2,1c-2.8,0-5.5-0.2-8.6-0.2c-1,0-2,0.1-3.1,0.1
		c-0.4,0-0.5-0.1-0.5-0.3c0-0.1,0.1-0.2,0.3-0.2c0.3,0,0.7-0.1,1-0.1c0.6-0.1,0.8-0.9,0.9-2c0.2-1.5,0.2-4.4,0.2-7.8v-6.3
		c0-5.6,0-6.6-0.1-7.8c-0.1-1.2-0.3-1.8-1.4-2.1c-0.3-0.1-0.8-0.1-1.1-0.1c-0.1,0-0.3-0.1-0.3-0.2c0-0.2,0.2-0.3,0.5-0.3
		c1.4,0,3.5,0.1,3.6,0.1c0.2,0,2.5-0.1,3.5-0.1c0.4,0,0.5,0.1,0.5,0.3c0,0.1-0.1,0.2-0.3,0.2c-0.2,0-0.7,0-1.1,0.1
		c-0.9,0.2-1.2,0.8-1.2,2.1c-0.1,1.2-0.1,2.2-0.1,7.8V44z"/>
</g>
</svg>
